<svg viewBox="0 0 1080 1080" fill="none" xmlns="http://www.w3.org/2000/svg">      <defs>  <filter id="filter" x="-20%" y="-20%" width="140%" height="140%" filterUnits="objectBoundingBox" primitiveUnits="userSpaceOnUse" color-interpolation-filters="linearRGB">    <feMorphology operator="dilate" radius="20 20" in="SourceAlpha" result="morphology"/>    <feFlood flood-color="#ffffff" flood-opacity="1" result="flood"/>    <feComposite in="flood" in2="morphology" operator="in" result="composite"/>    <feMerge result="merge">          <feMergeNode in="composite" result="mergeNode"/>      <feMergeNode in="SourceGraphic" result="mergeNode1"/>      </feMerge>  </filter></defs>      <g id="notion-avatar" filter="url(#filter)">        <g id="notion-avatar-face" fill="#ffffff">      <!--?xml version="1.0" encoding="UTF-8"?-->    <!-- Generator: Sketch 63.1 (92452) - https://sketch.com -->    <title>Face/ 15</title>    <desc>Created with Sketch.</desc>    <g id="Face/-15" stroke="none" stroke-width="1" fill-rule="evenodd" stroke-linecap="round" stroke-linejoin="round">        <path d="M532,379 C664.54834,379 772,486.45166 772,619 C772,642.160109 793.234546,666.244677 787.453024,688.979248 C773.583554,743.517917 768.701879,951.343666 608,919 C549.618945,907.249936 481,900 453,878 C425,856 342.170039,758.772836 320.189513,718.584987 C317.498129,718.859681 314.765451,719 312,719 C267.81722,719 232,683.18278 232,639 C232,599.134956 261.158843,566.080325 299.312086,560.00055 C325.599297,455.979213 419.809919,379 532,379 Z M295.858895,624.545187 L304.141105,655.454813" id="Path" stroke="#000000" stroke-width="24"/>    </g>    </g><g id="notion-avatar-nose">      <g id="Nose/ 13"><path id="Path" fill-rule="evenodd" clip-rule="evenodd" d="M644 560C644 560 665.892 613.522 673 623C676 627 693.906 641.256 692.774 653.58C690.065 683.076 644 684.359 644 684.359C644 684.359 700 689.489 700 653.58C700 637.222 687 632 674 620C666.959 613.5 644 560 644 560Z" fill="black" stroke="black" stroke-width="6" stroke-linecap="round" stroke-linejoin="round"/></g>    </g><g id="notion-avatar-mouth">      <!--?xml version="1.0" encoding="UTF-8"?-->    <title>Mouth/ 9</title>    <g id="Mouth/-9" stroke="none" stroke-width="1" fill="none" fill-rule="evenodd" stroke-linecap="round" stroke-linejoin="round">        <path d="M532,760 C569.387146,756.771376 597.387146,753.438043 616,750 C634.612854,746.561957 658.946187,740.228624 689,731 L667,780 C644.19345,787.762145 627.19345,792.095479 616,793 C604.80655,793.904521 588.80655,792.237855 568,788 L532,760 Z" id="Path" stroke="#000000" stroke-width="16"/>    </g>    </g><g id="notion-avatar-eyes">      <!--?xml version="1.0" encoding="UTF-8"?-->    <title>Eyes/ 1</title>    <g id="Eyes/-1" stroke="none" stroke-width="1" fill="none" fill-rule="evenodd">        <g id="Group" transform="translate(546.000000, 509.000000)">            <path d="M24,7 C37.254834,7 48,17.745166 48,31 C48,44.254834 37.254834,55 24,55 C10.745166,55 0,44.254834 0,31 C0,17.745166 10.745166,7 24,7 Z M162,7 C175.254834,7 186,17.745166 186,31 C186,44.254834 175.254834,55 162,55 C148.745166,55 138,44.254834 138,31 C138,17.745166 148.745166,7 162,7 Z" id="Combined-Shape" fill="#000000"/>            <g id="Path" stroke="#000000" stroke-linecap="round" stroke-linejoin="round" stroke-width="4">                <path d="M0,7 C8,2.33333333 16,0 24,0 C32,0 40,2.33333333 48,7"/>                <path d="M138,7 C146,2.33333333 154,0 162,0 C170,0 178,2.33333333 186,7"/>            </g>        </g>    </g>    </g><g id="notion-avatar-eyebrows">      <!--?xml version="1.0" encoding="UTF-8"?-->    <title>Eyebrows/ 1</title>    <g id="Eyebrows/-1" stroke="none" stroke-width="1" fill="none" fill-rule="evenodd" stroke-linecap="square" stroke-linejoin="round">        <g id="Group" transform="translate(521.000000, 490.000000)" stroke="#000000" stroke-width="20">            <path d="M0,16 C12.8888889,5.33333333 27.8888889,0 45,0 C62.1111111,0 77.1111111,5.33333333 90,16" id="Path"/>            <path d="M146,16 C158.888889,5.33333333 173.888889,0 191,0 C208.111111,0 223.111111,5.33333333 236,16" id="Path"/>        </g>    </g>    </g><g id="notion-avatar-glasses">      <g id="Glasses/ 12"><g id="Group"><path id="Path" fill-rule="evenodd" clip-rule="evenodd" d="M805.209 500.217C805.813 491.284 798.652 484 789.699 484H455C446.163 484 439 491.163 439 500V575.76C439 580.706 441.26 585.352 445.249 588.275C465.881 603.396 532.959 650 575.94 650C627.244 650 619.761 588.343 666.321 588.343C712.881 588.343 690.97 650 747.116 640.514C791.7 632.982 802.608 538.717 805.209 500.217Z" fill="white" stroke="black" stroke-width="12" stroke-linecap="round" stroke-linejoin="round"/><g id="Group_2"><path id="Mask" fill-rule="evenodd" clip-rule="evenodd" d="M783.642 509.995C783.893 505.509 780.3 501.847 775.807 501.847L465 501.847C460.582 501.847 457 505.428 457 509.847V561.349C457 563.759 458.047 566.008 459.946 567.493C474.566 578.927 540.245 628.47 580.546 628.47C611.607 628.47 603.397 573.489 662.087 568.491C720.777 563.492 704.644 623.472 742.954 620.14C775.033 617.35 782.169 536.288 783.642 509.995Z" fill="black"/><mask id="mask0_0_1157" style="mask-type:alpha" maskUnits="userSpaceOnUse" x="457" y="501" width="327" height="128"><path id="Mask_2" fill-rule="evenodd" clip-rule="evenodd" d="M783.642 509.995C783.893 505.509 780.3 501.847 775.807 501.847L465 501.847C460.582 501.847 457 505.428 457 509.847V561.349C457 563.759 458.047 566.008 459.946 567.493C474.566 578.927 540.245 628.47 580.546 628.47C611.607 628.47 603.397 573.489 662.087 568.491C720.777 563.492 704.644 623.472 742.954 620.14C775.033 617.35 782.169 536.288 783.642 509.995Z" fill="white"/></mask><g mask="url(#mask0_0_1157)"><path id="Path_2" d="M671.808 492.742L781.264 580.828" stroke="white" stroke-width="16" stroke-linecap="round" stroke-linejoin="round"/><path id="Path_3" d="M696.436 478.979L805.892 567.065" stroke="white" stroke-width="8" stroke-linecap="round" stroke-linejoin="round"/></g></g><path id="Path_4" fill-rule="evenodd" clip-rule="evenodd" d="M439 492.036L284 523V566.875L439 552V492.036Z" fill="black" stroke="black" stroke-width="12" stroke-linecap="round" stroke-linejoin="round"/></g></g>    </g><g id="notion-avatar-hair">      <g id="Hairstyle/ 31"><path id="Path" fill-rule="evenodd" clip-rule="evenodd" d="M304.306 565.52C337.243 585.751 365.511 672.712 365.511 672.712C365.511 672.712 365.252 601.808 393 560C420.749 518.192 460.001 483 460.001 483C460.001 483 453.001 467 444.44 451.95C435.88 436.899 399.899 409.29 399.899 409.29C399.899 409.29 582.534 466.231 642.612 454.357C702.69 442.484 749.621 420.302 780.515 364.949C811.409 309.595 816.59 213.248 816.59 213.248C816.59 213.248 733.414 266.466 695.832 260.494C658.25 254.523 639.768 238.18 619.952 207.908C612.261 196.159 593.16 162.47 593.16 162.47C593.16 162.47 586.419 185.366 586.817 192.079C588.205 215.501 593.616 219.059 585.681 214.893C569.218 206.25 551.73 197.141 533.324 187.407C519.054 179.861 497.63 150.783 497.63 150.783C497.63 150.783 491.035 170.889 493.648 185.455C495.292 194.615 510.821 224.307 510.821 224.307C510.821 224.307 485.652 199.471 442.094 198.945C416.855 198.641 380.949 210.817 333.977 222.605C326.905 224.38 311.824 221.908 311.824 221.908L354.267 245.388C354.267 245.388 274.534 271.192 255.789 297.105C249.4 305.936 240.401 317.865 232.782 334.906C225.497 351.2 211.516 400.336 211.516 400.336C211.516 400.336 219.8 377.186 237.879 360.988C255.958 344.789 295.534 342.016 295.534 342.016C295.534 342.016 241.217 374.824 232.109 410.494C223.002 446.165 251.335 572.688 251.335 572.688C251.335 572.688 271.368 545.289 304.306 565.52Z" fill="black" stroke="black" stroke-width="12" stroke-linecap="round" stroke-linejoin="round"/></g>    </g><g id="notion-avatar-accessories">      <g id="Accessories/ 14"><g id="Group"><path id="Path" d="M287.695 658.293C276.76 647.358 276.76 629.63 287.695 618.695C298.63 607.76 316.358 607.76 327.293 618.695C337.267 628.669 338.143 644.297 329.921 655.264L362.083 687.426C366.925 692.268 366.925 700.119 362.083 704.962C357.24 709.804 349.389 709.804 344.547 704.962L306.04 666.456C299.371 666.111 292.792 663.389 287.695 658.293Z" fill="white" stroke="black" stroke-width="8" stroke-linecap="round" stroke-linejoin="round"/><rect id="Rectangle" width="8" height="16" rx="4" transform="matrix(-0.707107 0.707107 0.707107 0.707107 295.615 623.221)" fill="black"/></g></g>    </g><g id="notion-avatar-details">      <!--?xml version="1.0" encoding="UTF-8"?-->    <title>Details/ 0</title>    <g id="Details/-0" stroke="none" stroke-width="1" fill="none" fill-rule="evenodd"/>    </g><g id="notion-avatar-beard">      <!--?xml version="1.0" encoding="UTF-8"?-->    <title>Beard/ 0</title>    <g id="Beard/-0" stroke="none" stroke-width="1" fill="none" fill-rule="evenodd"/>    </g>      </g>      </svg>
